<?xml version="1.0" standalone="no"?>
<!DOCTYPE svg PUBLIC "-//W3C//DTD SVG 20010904//EN"
 "http://www.w3.org/TR/2001/REC-SVG-20010904/DTD/svg10.dtd">
<svg version="1.0" xmlns="http://www.w3.org/2000/svg"
 width="6000.000000pt" height="2994.000000pt" viewBox="0 0 6000.000000 2994.000000"
 preserveAspectRatio="xMidYMid meet">

<g transform="translate(0.000000,2994.000000) scale(0.100000,-0.100000)"
fill="#000000" stroke="none">
<path d="M22580 27333 c-613 -32 -1038 -89 -1505 -203 -1370 -332 -2348 -1070
-2815 -2124 -189 -427 -284 -884 -297 -1426 -22 -970 225 -1664 788 -2205 249
-239 522 -421 924 -616 672 -325 1481 -547 3305 -904 1040 -204 2039 -471
2612 -698 629 -251 1072 -526 1418 -883 392 -404 588 -826 677 -1454 26 -181
25 -790 0 -970 -81 -562 -264 -999 -580 -1383 -390 -474 -1031 -853 -1828
-1082 -884 -254 -2045 -336 -3164 -225 -971 97 -1850 353 -2588 751 -575 311
-1072 683 -1593 1192 -83 81 -154 147 -158 147 -10 0 -296 -251 -296 -260 0
-11 266 -262 425 -402 734 -642 1525 -1108 2374 -1399 573 -196 1180 -322
1841 -383 799 -74 1695 -50 2430 65 1079 168 1984 558 2592 1116 554 509 857
1125 960 1953 8 68 13 228 13 455 0 356 -5 438 -45 675 -51 302 -153 611 -276
837 -409 753 -1166 1299 -2364 1708 -549 187 -1530 435 -2565 649 -1544 319
-2442 579 -3043 880 -351 176 -589 341 -807 560 -465 468 -662 1057 -642 1916
6 250 21 415 57 620 216 1225 1029 2051 2413 2451 638 184 1403 269 2302 256
209 -3 439 -11 510 -17 1400 -118 2239 -493 3148 -1405 l189 -190 74 80 c41
44 100 108 130 142 l56 62 -93 101 c-153 165 -429 416 -629 571 -830 643
-1795 966 -3100 1039 -164 9 -703 11 -850 3z"/>
<path d="M8546 27188 c-414 -942 -6246 -14309 -6246 -14317 0 -8 61 -11 221
-9 l221 3 1084 2480 c596 1364 1103 2525 1125 2580 23 55 88 213 145 350 94
231 3632 8324 3651 8353 5 8 634 -1435 1742 -4000 954 -2207 1752 -4051 1773
-4097 22 -46 77 -171 124 -278 46 -106 95 -217 108 -246 13 -29 522 -1193
1131 -2587 609 -1394 1112 -2541 1117 -2547 8 -10 66 -13 230 -13 186 0 219 2
215 14 -3 8 -1411 3243 -3129 7190 l-3123 7176 -183 0 -183 0 -23 -52z"/>
<path d="M32210 20050 l0 -7191 2498 4 c2541 4 2549 4 2952 43 1135 109 2198
479 3077 1071 1259 848 2149 2179 2568 3838 259 1024 330 2284 194 3420 -243
2033 -1081 3641 -2440 4687 -590 454 -1318 822 -2033 1029 -476 138 -921 215
-1566 271 -97 8 -854 12 -2692 15 l-2558 4 0 -7191z m5220 6762 c1047 -97
1760 -292 2530 -694 505 -263 924 -566 1323 -957 610 -599 1057 -1298 1385
-2166 605 -1605 654 -3779 123 -5505 -400 -1298 -1123 -2346 -2119 -3072 -444
-323 -996 -610 -1518 -788 -616 -211 -1267 -323 -2037 -350 -160 -5 -1194 -10
-2389 -10 l-2108 0 0 6780 0 6781 2343 -4 c1667 -3 2378 -7 2467 -15z"/>
<path d="M47955 27228 c-3 -7 -4 -3242 -3 -7188 l3 -7175 203 -3 202 -2 1
3587 c0 1974 0 5117 -1 6986 l-1 3397 4425 0 4426 0 0 205 0 205 -4625 0
c-3691 0 -4627 -3 -4630 -12z"/>
<path d="M51720 20575 l0 -205 1415 0 1415 0 0 205 0 205 -1415 0 -1415 0 0
-205z"/>
<path d="M7340 20155 l0 -205 1415 0 1415 0 0 205 0 205 -1415 0 -1415 0 0
-205z"/>
<path d="M16695 11104 c-486 -49 -885 -168 -1264 -378 -757 -419 -1323 -1082
-1644 -1926 -278 -728 -322 -1530 -126 -2300 135 -532 362 -998 695 -1430 109
-141 423 -459 561 -568 224 -176 517 -354 755 -457 400 -172 786 -249 1258
-249 311 0 526 25 800 94 675 170 1314 589 1771 1160 444 556 724 1225 816
1945 22 176 25 672 5 840 -41 340 -114 641 -233 965 -67 181 -248 544 -351
706 -359 560 -823 986 -1393 1280 -300 154 -604 250 -956 299 -109 16 -596 29
-694 19z m552 -849 c344 -46 638 -157 936 -355 615 -409 1024 -1057 1176
-1860 38 -204 46 -307 45 -600 0 -238 -4 -309 -22 -427 -103 -686 -383 -1273
-812 -1704 -364 -365 -795 -591 -1270 -665 -164 -26 -538 -26 -705 0 -332 51
-625 165 -911 355 -637 423 -1073 1170 -1189 2036 -23 171 -30 492 -16 666 47
550 218 1052 506 1484 260 391 581 674 990 875 211 104 400 160 650 194 141
20 476 20 622 1z"/>
<path d="M54055 11104 c-926 -76 -1590 -411 -1978 -999 -197 -300 -297 -631
-314 -1045 -20 -490 109 -882 385 -1172 334 -351 786 -548 1892 -827 801 -201
1107 -299 1385 -439 464 -233 666 -543 642 -987 -13 -237 -74 -406 -204 -568
-187 -232 -558 -394 -1028 -449 -146 -17 -624 -17 -780 0 -659 73 -1361 338
-1835 693 -116 87 -258 209 -273 235 -4 8 -12 14 -16 14 -8 0 -421 -722 -436
-761 -4 -11 30 -42 122 -111 501 -375 1017 -620 1623 -773 821 -205 1774 -188
2463 46 652 221 1101 663 1270 1249 128 441 89 1039 -91 1396 -130 257 -307
452 -579 633 -363 243 -823 409 -1695 612 -958 222 -1304 341 -1569 541 -184
139 -289 324 -318 563 -37 304 30 606 183 819 55 76 182 200 261 253 172 115
386 191 668 234 170 27 616 37 794 19 559 -57 1129 -278 1511 -587 51 -42 106
-91 122 -111 19 -23 33 -33 39 -27 11 11 421 722 421 730 0 10 -157 129 -270
205 -397 266 -838 452 -1290 545 -253 51 -411 66 -745 70 -170 1 -332 1 -360
-1z"/>
<path d="M2362 7453 l3 -3608 457 -3 458 -2 2 2785 3 2786 1201 -2133 1200
-2133 255 -3 c234 -2 257 -1 271 15 8 10 548 969 1199 2132 l1184 2113 5
-2778 5 -2779 458 -3 457 -2 0 3610 0 3610 -481 -2 -480 -3 -686 -1225 c-377
-674 -965 -1726 -1308 -2338 l-623 -1112 -1303 2340 -1304 2339 -488 1 -487 0
2 -3607z"/>
<path d="M24360 7449 l0 -3610 1408 4 c1224 4 1425 6 1542 20 499 61 864 166
1250 359 244 122 436 248 629 414 664 570 1043 1362 1143 2389 19 197 16 714
-6 910 -100 916 -419 1638 -961 2180 -497 497 -1156 811 -1910 909 -253 33
-404 36 -1747 36 l-1348 0 0 -3611z m2940 2767 c468 -78 806 -217 1149 -474
203 -152 409 -379 551 -607 109 -175 226 -447 289 -670 139 -495 168 -1097 80
-1635 -56 -336 -174 -689 -322 -955 -244 -442 -552 -738 -992 -955 -179 -88
-306 -135 -487 -179 -308 -75 -421 -81 -1434 -81 l-854 0 0 2790 0 2791 958
-4 c854 -3 968 -5 1062 -21z"/>
<path d="M34400 7450 l0 -3610 2448 2 2447 3 3 408 2 407 -1990 0 -1990 0 0
1240 0 1240 1690 0 1690 0 0 385 0 385 -1690 0 -1690 0 0 1165 0 1165 1943 2
1942 3 3 408 2 407 -2405 0 -2405 0 0 -3610z"/>
<path d="M43340 7450 l0 -3610 2470 0 2470 0 0 410 0 410 -2010 0 -2010 0 0
3200 0 3200 -460 0 -460 0 0 -3610z"/>
</g>
</svg>
